M48
;GenerationSoftware,Autodesk,EAGLE,9.2.2*%
;CreationDate,2019-11-05T13:02:49Z*%
FMAT,2
ICI,OFF
METRIC,TZ,000.000
T4C0.813
T3C0.914
T2C1.000
T1C1.397
%
G90
M71
T1
X4500Y50000
X70500Y4500
T2
X4090Y12890
X5390Y3890
X6390Y10790
X13390Y10590
T3
X31710Y44180
X36790Y44180
X39330Y44180
X41870Y44180
X44410Y44180
X49490Y44180
X52030Y44180
X10820Y25360
X54570Y44180
X34250Y44180
X21550Y44180
X46950Y44180
X6540Y37830
X6540Y40370
X6540Y32750
X5740Y25360
X6540Y35290
X19010Y44180
X8280Y25360
X13930Y28940
X16470Y28940
X19010Y28940
X21550Y28940
X24090Y28940
X29170Y28940
X31710Y28940
X34250Y28940
X36790Y28940
X39330Y28940
X41870Y28940
X44410Y28940
X46950Y28940
X49490Y28940
X54570Y28940
X26630Y28940
X52030Y28940
X13930Y44180
X16470Y44180
X24090Y44180
X26630Y44180
X29170Y44180
T4
X31710Y21550
X36790Y21550
X50760Y21550
X45680Y21550
X65770Y48910
X60690Y48910
X60690Y17510
X68310Y25130
X65770Y25130
X65770Y17510
X68310Y17510
X63230Y25130
X60690Y25130
X63230Y17510
X21550Y21550
X6310Y21550
X59940Y28930
X59940Y44170
M30