G04 EAGLE Gerber RS-274X export*
G75*
%MOMM*%
%FSLAX34Y34*%
%LPD*%
%INBottom Copper*%
%IPPOS*%
%AMOC8*
5,1,8,0,0,1.08239X$1,22.5*%
G01*
%ADD10P,1.732040X8X22.500000*%
%ADD11C,1.320800*%
%ADD12P,1.429621X8X22.500000*%
%ADD13P,1.429621X8X202.500000*%
%ADD14C,1.508000*%
%ADD15P,1.429621X8X112.500000*%
%ADD16P,4.123906X8X22.500000*%
%ADD17C,1.500000*%


D10*
X108200Y253600D03*
D11*
X317100Y215500D03*
D12*
X367900Y215500D03*
D11*
X507600Y215500D03*
D13*
X456800Y215500D03*
X657700Y489100D03*
X606900Y489100D03*
D10*
X606900Y175100D03*
X632300Y175100D03*
X683100Y251300D03*
X657700Y251300D03*
X657700Y175100D03*
X683100Y175100D03*
X632300Y251300D03*
X606900Y251300D03*
D14*
X133900Y113440D02*
X133900Y98360D01*
X40900Y121360D02*
X40900Y136440D01*
X53900Y46440D02*
X53900Y31360D01*
X56360Y107900D02*
X71440Y107900D01*
D10*
X57400Y253600D03*
D13*
X215500Y215500D03*
X63100Y215500D03*
D15*
X599400Y289300D03*
X599400Y441700D03*
D10*
X82800Y253600D03*
X139300Y289400D03*
X164700Y289400D03*
X190100Y289400D03*
X215500Y289400D03*
X240900Y289400D03*
X291700Y289400D03*
X317100Y289400D03*
X342500Y289400D03*
X367900Y289400D03*
X393300Y289400D03*
X418700Y289400D03*
X444100Y289400D03*
X469500Y289400D03*
X494900Y289400D03*
X545700Y289400D03*
X266300Y289400D03*
X520300Y289400D03*
X139300Y441800D03*
X164700Y441800D03*
X240900Y441800D03*
X266300Y441800D03*
X291700Y441800D03*
X317100Y441800D03*
X342500Y441800D03*
X367900Y441800D03*
X393300Y441800D03*
X418700Y441800D03*
X444100Y441800D03*
X494900Y441800D03*
X520300Y441800D03*
X545700Y441800D03*
X190100Y441800D03*
X215500Y441800D03*
X469500Y441800D03*
X65400Y378300D03*
X65400Y403700D03*
X65400Y327500D03*
X65400Y352900D03*
D16*
X45000Y500000D03*
X705000Y45000D03*
D17*
X55000Y53900D02*
X55000Y55000D01*
X55000Y53900D02*
X70000Y38900D01*
X55000Y37800D02*
X53900Y38900D01*
X55000Y37800D02*
X55000Y29960D01*
X61060Y29960D01*
X70000Y38900D01*
X655000Y172400D02*
X657700Y175100D01*
X655000Y172400D02*
X655000Y130000D01*
X563900Y38900D01*
X70000Y38900D01*
X632300Y137300D02*
X632300Y175100D01*
X632300Y137300D02*
X610000Y115000D01*
X40900Y128900D02*
X40900Y144100D01*
X40000Y145000D01*
X325000Y145000D02*
X355000Y115000D01*
X610000Y115000D01*
X325000Y145000D02*
X70000Y145000D01*
X40000Y145000D01*
X55000Y130000D02*
X70000Y145000D01*
X55000Y130000D02*
X40000Y130000D01*
X65400Y352900D02*
X248400Y352900D01*
X265000Y352900D01*
X284200Y352900D01*
X535800Y352900D01*
X599400Y289300D01*
X266300Y289400D02*
X266300Y335000D01*
X266300Y351600D01*
X265000Y352900D01*
X266300Y335000D02*
X284200Y352900D01*
X266300Y335000D02*
X248400Y352900D01*
X57400Y253600D02*
X40000Y271000D01*
X40000Y340000D01*
X52900Y352900D01*
X65400Y352900D01*
X683100Y251300D02*
X685000Y225000D01*
X655000Y195000D01*
X116435Y195000D02*
X65718Y245718D01*
X116435Y195000D02*
X655000Y195000D01*
X133900Y105900D02*
X108000Y80000D01*
X45000Y80000D01*
X20000Y105000D01*
X20000Y220000D01*
X37500Y237500D01*
X45718Y245718D02*
X50000Y250000D01*
X40000Y260000D01*
X40000Y271000D01*
X57400Y253600D02*
X53800Y250000D01*
X40000Y250000D01*
X40000Y260000D01*
X57400Y253600D02*
X65282Y245718D01*
X65718Y245718D01*
X57400Y253600D02*
X53600Y253600D01*
X50000Y250000D01*
X45718Y245718D02*
X37500Y237500D01*
X45718Y245718D02*
X65282Y245718D01*
X40000Y250000D02*
X37500Y237500D01*
X82800Y253600D02*
X65400Y327500D01*
X683100Y175100D02*
X683200Y175000D01*
X700000Y175000D01*
X715240Y190240D01*
X715240Y474760D01*
X674760Y515240D01*
X65400Y425400D02*
X65400Y403700D01*
X155240Y515240D02*
X674760Y515240D01*
X155240Y515240D02*
X65400Y425400D01*
X65400Y378300D02*
X175000Y378300D01*
X190000Y378300D01*
X205000Y378300D01*
X571700Y378300D01*
X632300Y317700D02*
X632300Y251300D01*
X632300Y317700D02*
X571700Y378300D01*
X190100Y441800D02*
X190000Y441700D01*
X190000Y393300D01*
X190000Y378300D01*
X175000Y378300D02*
X190000Y393300D01*
X205000Y378300D01*
X657700Y489100D02*
X657700Y251300D01*
X606900Y489100D02*
X606000Y490000D01*
X580000Y490000D02*
X490000Y490000D01*
X580000Y490000D02*
X595000Y490000D01*
X606000Y490000D01*
X469500Y469500D02*
X469500Y441800D01*
X469500Y469500D02*
X490000Y490000D01*
X606900Y489100D02*
X606900Y475000D01*
X606900Y449200D01*
X599400Y441700D01*
X595000Y486900D02*
X595000Y490000D01*
X599400Y482500D02*
X606900Y475000D01*
X599400Y470600D02*
X599400Y441700D01*
X599400Y470600D02*
X599400Y482500D01*
X595000Y486900D01*
X580000Y490000D02*
X599400Y470600D01*
X606900Y251300D02*
X605600Y250000D01*
X580000Y250000D01*
X545500Y215500D02*
X507600Y215500D01*
X545500Y215500D02*
X580000Y250000D01*
X456800Y215500D02*
X367900Y215500D01*
X63100Y215500D02*
X63100Y196900D01*
X85000Y175000D01*
X606800Y175000D01*
X606900Y175100D01*
X317100Y215500D02*
X215500Y215500D01*
X520000Y289100D02*
X520300Y289400D01*
X520000Y289100D02*
X520000Y265000D01*
X508600Y253600D02*
X108200Y253600D01*
X508600Y253600D02*
X520000Y265000D01*
M02*
