G04 EAGLE Gerber RS-274X export*
G75*
%MOMM*%
%FSLAX34Y34*%
%LPD*%
%INSoldermask Bottom*%
%IPPOS*%
%AMOC8*
5,1,8,0,0,1.08239X$1,22.5*%
G01*
%ADD10P,1.951982X8X22.500000*%
%ADD11C,1.524000*%
%ADD12P,1.649562X8X22.500000*%
%ADD13P,1.649562X8X202.500000*%
%ADD14C,1.711200*%
%ADD15P,1.649562X8X112.500000*%
%ADD16P,4.343848X8X22.500000*%


D10*
X108200Y253600D03*
D11*
X317100Y215500D03*
D12*
X367900Y215500D03*
D11*
X507600Y215500D03*
D13*
X456800Y215500D03*
X657700Y489100D03*
X606900Y489100D03*
D10*
X606900Y175100D03*
X632300Y175100D03*
X683100Y251300D03*
X657700Y251300D03*
X657700Y175100D03*
X683100Y175100D03*
X632300Y251300D03*
X606900Y251300D03*
D14*
X133900Y113440D02*
X133900Y98360D01*
X40900Y121360D02*
X40900Y136440D01*
X53900Y46440D02*
X53900Y31360D01*
X56360Y107900D02*
X71440Y107900D01*
D10*
X57400Y253600D03*
D13*
X215500Y215500D03*
X63100Y215500D03*
D15*
X599400Y289300D03*
X599400Y441700D03*
D10*
X82800Y253600D03*
X139300Y289400D03*
X164700Y289400D03*
X190100Y289400D03*
X215500Y289400D03*
X240900Y289400D03*
X291700Y289400D03*
X317100Y289400D03*
X342500Y289400D03*
X367900Y289400D03*
X393300Y289400D03*
X418700Y289400D03*
X444100Y289400D03*
X469500Y289400D03*
X494900Y289400D03*
X545700Y289400D03*
X266300Y289400D03*
X520300Y289400D03*
X139300Y441800D03*
X164700Y441800D03*
X240900Y441800D03*
X266300Y441800D03*
X291700Y441800D03*
X317100Y441800D03*
X342500Y441800D03*
X367900Y441800D03*
X393300Y441800D03*
X418700Y441800D03*
X444100Y441800D03*
X494900Y441800D03*
X520300Y441800D03*
X545700Y441800D03*
X190100Y441800D03*
X215500Y441800D03*
X469500Y441800D03*
X65400Y378300D03*
X65400Y403700D03*
X65400Y327500D03*
X65400Y352900D03*
D16*
X45000Y500000D03*
X705000Y45000D03*
M02*
